<svg width="170" height="26" viewBox="0 0 170 26" fill="none" xmlns="http://www.w3.org/2000/svg">
<path d="M55.1206 6.46533C55.1206 6.65626 55.0389 6.77559 54.8754 6.82332C54.5951 6.84719 54.3265 6.94265 54.0696 7.10971C53.8361 7.25291 53.5909 7.3603 53.334 7.4319C53.0304 7.40804 52.7384 7.41997 52.4582 7.4677C52.1779 7.51543 51.8743 7.5035 51.5474 7.4319C51.5007 7.47963 51.4423 7.52737 51.3722 7.5751C51.3021 7.62283 51.2321 7.67056 51.162 7.7183C51.0686 7.7183 50.9635 7.73023 50.8467 7.75409C50.7299 7.77796 50.6132 7.78989 50.4964 7.78989H49.6206C49.4338 7.78989 49.2469 7.80183 49.0601 7.82569C48.8733 7.82569 48.6864 7.81376 48.4996 7.78989C48.2894 7.78989 48.1026 7.83762 47.9391 7.93309C47.7756 8.00469 47.6005 8.04049 47.4136 8.04049C47.3202 8.04049 47.2385 8.05242 47.1684 8.07628C47.0983 8.07628 47.0283 8.08822 46.9582 8.11208C46.7947 8.06435 46.6312 8.02855 46.4678 8.00469C46.3276 7.95695 46.1758 8.01662 46.0123 8.18368C45.8956 8.5894 45.7905 9.00706 45.6971 9.43665C45.627 9.86623 45.5686 10.2839 45.5219 10.6896C45.4518 11.1192 45.4518 11.5249 45.5219 11.9068C45.5453 11.9545 45.5569 12.0022 45.5569 12.05C45.5803 12.0977 45.6036 12.1454 45.627 12.1932H46.6779C46.8414 12.2648 47.0049 12.3483 47.1684 12.4438C47.3552 12.5392 47.5421 12.6466 47.7289 12.7659C47.7756 12.7898 47.834 12.8137 47.9041 12.8375C47.9975 12.8375 48.0909 12.8495 48.1843 12.8733C48.2544 12.8972 48.3361 12.9211 48.4295 12.9449C48.523 12.9688 48.6164 13.0046 48.7098 13.0523C48.8733 13.0523 49.0251 13.0046 49.1652 12.9091C49.3053 12.8137 49.4571 12.754 49.6206 12.7302H49.7958C49.9125 12.7302 50.0176 12.7421 50.1111 12.7659C50.2278 12.7898 50.3329 12.7898 50.4263 12.7659C50.73 12.6944 51.0336 12.6944 51.3372 12.7659C51.6408 12.8137 51.9327 12.8375 52.213 12.8375C52.3998 12.8375 52.575 12.8733 52.7384 12.9449C52.9253 13.0165 53.1004 13.1001 53.2639 13.1955C53.3573 14.007 53.3924 14.8304 53.369 15.6657C53.369 16.4771 53.3573 17.2886 53.334 18.1C53.334 18.1955 53.2989 18.2551 53.2289 18.279C53.1588 18.3029 53.0888 18.3029 53.0187 18.279C52.972 18.2551 52.9136 18.2313 52.8435 18.2074C52.7968 18.1835 52.7268 18.1597 52.6333 18.1358H50.6015C50.3913 18.1119 50.1928 18.1119 50.006 18.1358C49.8425 18.1597 49.6673 18.1597 49.4805 18.1358C49.2937 18.1119 49.1068 18.1 48.92 18.1C48.7331 18.0761 48.5346 18.0523 48.3244 18.0284C48.161 18.0045 47.9858 17.9926 47.799 17.9926C47.6121 17.9926 47.4136 17.9807 47.2034 17.9568C47.0867 17.9568 46.9582 17.9329 46.8181 17.8852C46.7013 17.8375 46.5845 17.8017 46.4678 17.7778C46.3043 17.8017 46.1758 17.8613 46.0824 17.9568C46.0123 18.0523 45.9189 18.1477 45.8022 18.2432C45.7788 18.2909 45.7438 18.3625 45.6971 18.458C45.6737 18.5296 45.6387 18.6012 45.592 18.6728C45.6153 18.7444 45.627 18.8279 45.627 18.9234C45.7438 19.0666 45.8138 19.2336 45.8372 19.4246C45.8839 19.5916 45.9072 19.7706 45.9072 19.9615C45.9072 20.2479 45.9189 20.5343 45.9423 20.8207C45.989 21.1071 45.989 21.3935 45.9423 21.6799C45.9423 21.9186 45.9423 22.1572 45.9423 22.3959C45.9656 22.6345 46.024 22.8613 46.1174 23.076C46.1408 23.1238 46.1525 23.2073 46.1525 23.3266C46.0123 23.6608 45.8255 23.983 45.592 24.2932C45.3584 24.4603 45.1249 24.5677 44.8913 24.6154C44.6811 24.687 44.4476 24.7825 44.1907 24.9018C44.0973 24.8779 43.9922 24.866 43.8754 24.866C43.782 24.866 43.6769 24.866 43.5601 24.866C43.4667 24.8899 43.3149 24.9734 43.1047 25.1166H41.9136C41.7268 25.1166 41.5283 25.1166 41.3181 25.1166C41.1313 25.1405 40.9211 25.1524 40.6875 25.1524C40.454 25.1524 40.2905 25.045 40.1971 24.8302C40.1737 24.7347 40.162 24.6273 40.162 24.508C40.162 24.3887 40.1504 24.2574 40.127 24.1142C40.057 23.9949 39.9986 23.8875 39.9519 23.792C39.9052 23.6727 39.8584 23.5653 39.8117 23.4698C39.7884 23.3266 39.765 23.1834 39.7417 23.0403C39.7417 22.8971 39.73 22.7658 39.7066 22.6465C39.7767 22.4317 39.8351 22.2288 39.8818 22.0379C39.9519 21.847 40.0219 21.6441 40.092 21.4293C39.9986 20.8804 39.9402 20.3195 39.9168 19.7467C39.8935 19.1501 39.9285 18.5534 40.0219 17.9568C40.0219 17.8375 39.9986 17.7062 39.9519 17.563C39.9285 17.4198 39.9519 17.2647 40.0219 17.0976C40.162 16.8351 40.162 16.5845 40.0219 16.3458C39.9986 16.1788 39.9752 16.0117 39.9519 15.8447C39.9519 15.6776 39.9752 15.5105 40.0219 15.3435C40.0686 15.2719 40.092 15.1883 40.092 15.0929C40.092 14.9974 40.092 14.902 40.092 14.8065C40.1153 14.6872 40.1037 14.5559 40.057 14.4127C40.0102 14.2695 39.9986 14.1263 40.0219 13.9831C40.0686 13.8638 40.092 13.7445 40.092 13.6251C40.1153 13.4819 40.127 13.3387 40.127 13.1955C40.127 13.0285 40.1387 12.8614 40.162 12.6944C40.1854 12.5273 40.2204 12.3722 40.2671 12.229C40.2438 12.0619 40.2204 11.9187 40.1971 11.7994C40.1971 11.6562 40.1854 11.513 40.162 11.3698C40.2788 11.1073 40.3372 10.8447 40.3372 10.5822C40.3606 10.2958 40.3722 10.0094 40.3722 9.72304C40.3722 9.53211 40.3722 9.34118 40.3722 9.15025C40.3722 8.95933 40.3839 8.78033 40.4073 8.61327C40.4306 8.42234 40.4423 8.24335 40.4423 8.07628C40.4657 7.88536 40.4773 7.70636 40.4773 7.5393C40.4773 7.49157 40.4657 7.44384 40.4423 7.3961C40.4423 7.32451 40.454 7.26484 40.4773 7.21711C40.5708 7.02618 40.6058 6.84719 40.5824 6.68012C40.5824 6.4892 40.5941 6.3102 40.6175 6.14314C40.6175 5.99994 40.6175 5.85675 40.6175 5.71355C40.6408 5.54649 40.6642 5.39136 40.6875 5.24817C40.6642 5.12884 40.6291 4.99757 40.5824 4.85438C40.5357 4.71118 40.5007 4.59185 40.4773 4.49639C40.5007 4.37706 40.524 4.25773 40.5474 4.1384C40.5941 4.01907 40.6175 3.89974 40.6175 3.78041C40.6408 3.49402 40.8277 3.30309 41.178 3.20763C41.5984 3.06443 42.0421 2.95703 42.5092 2.88543C42.6727 2.88543 42.8011 2.8377 42.8945 2.74224C42.9879 2.69451 43.093 2.67064 43.2098 2.67064C43.3499 2.69451 43.4901 2.69451 43.6302 2.67064C43.7937 2.64677 43.9572 2.62291 44.1206 2.59904C44.3075 2.47971 44.5177 2.42005 44.7512 2.42005C45.1949 2.39618 45.6387 2.33652 46.0824 2.24105C46.5261 2.14559 46.9699 2.08592 47.4136 2.06206C47.6472 2.03819 47.869 2.02626 48.0792 2.02626C48.2894 2.00239 48.5113 2.02626 48.7448 2.09786C48.9317 2.12172 49.1185 2.14559 49.3053 2.16945C49.4922 2.16945 49.679 2.16945 49.8658 2.16945C49.9593 2.16945 50.0527 2.16945 50.1461 2.16945C50.2395 2.14559 50.3329 2.13366 50.4263 2.13366C50.7533 2.10979 50.9985 2.10979 51.162 2.13366C51.3255 2.13366 51.489 2.14559 51.6525 2.16945C51.8159 2.19332 52.0612 2.24105 52.3881 2.31265C52.5516 2.33652 52.7034 2.36038 52.8435 2.38425C53.007 2.38425 53.1588 2.40811 53.2989 2.45585C53.5558 2.57518 53.8361 2.65871 54.1397 2.70644C54.2565 2.73031 54.3499 2.77804 54.42 2.84963C54.49 2.89737 54.5484 2.9451 54.5951 2.99283C54.6885 3.37469 54.6885 3.74461 54.5951 4.1026C54.6652 4.31739 54.7352 4.56799 54.8053 4.85438C54.8053 4.87824 54.7936 4.93791 54.7703 5.03337C54.7703 5.10497 54.7703 5.16463 54.7703 5.21237C54.7703 5.3317 54.782 5.4033 54.8053 5.42716C54.852 5.52262 54.8987 5.63002 54.9454 5.74935C54.9921 5.84482 55.0272 5.94028 55.0505 6.03574C55.0972 6.10734 55.1206 6.17894 55.1206 6.25054C55.1206 6.32213 55.1206 6.39373 55.1206 6.46533Z" fill="black"/>
<path d="M66.6296 21.1787C66.6296 21.3935 66.5362 21.5725 66.3493 21.7157C66.1625 21.9066 66.1158 22.1333 66.2092 22.3959C66.2559 22.5629 66.2793 22.7419 66.2793 22.9329C66.2793 23.1238 66.2793 23.3147 66.2793 23.5056C66.2559 23.5534 66.2209 23.613 66.1742 23.6846C66.1508 23.7324 66.1158 23.7801 66.0691 23.8278C65.9757 23.8756 65.9173 23.8994 65.8939 23.8994C65.7071 23.9233 65.5203 23.9472 65.3334 23.971C65.1466 23.971 64.9598 23.971 64.7729 23.971C64.6562 23.971 64.5978 23.971 64.5978 23.971C64.2708 23.8756 63.9438 23.8278 63.6169 23.8278C63.3133 23.804 63.0097 23.7682 62.7061 23.7204C62.5192 23.6727 62.3441 23.6488 62.1806 23.6488C62.0171 23.6488 61.8536 23.6727 61.6901 23.7204C61.4566 23.6011 61.223 23.4818 60.9895 23.3624C60.7793 23.2192 60.5458 23.088 60.2889 22.9687C60.1254 22.7061 59.9152 22.4913 59.6583 22.3243C59.4248 22.1333 59.2146 21.9066 59.0277 21.6441C58.981 21.5248 58.9226 21.4054 58.8526 21.2861C58.8059 21.1668 58.7475 21.0594 58.6774 20.9639C58.4439 20.6059 58.2921 20.2121 58.222 19.7825C58.222 19.6155 58.1636 19.4723 58.0468 19.353C57.86 18.995 57.8133 18.6608 57.9067 18.3506C57.9301 18.3029 57.9301 18.2551 57.9067 18.2074C57.9067 18.1358 57.9184 18.0881 57.9417 18.0642C57.8483 17.9449 57.7783 17.8494 57.7316 17.7778C57.6848 17.7062 57.6381 17.6346 57.5914 17.563C57.5914 17.3959 57.6031 17.2766 57.6265 17.205L57.3462 16.847C57.3929 16.5845 57.4279 16.322 57.4513 16.0595C57.498 15.7731 57.5447 15.5105 57.5914 15.2719L57.3462 14.9139C57.3462 14.8184 57.3812 14.7468 57.4513 14.6991C57.5214 14.6275 57.5798 14.544 57.6265 14.4485C57.7199 14.186 57.7783 13.9354 57.8016 13.6967C57.8717 13.4103 57.9067 13.1359 57.9067 12.8733C57.86 12.3483 57.86 11.8352 57.9067 11.334C57.9534 10.8328 57.9651 10.3197 57.9417 9.79463C58.0585 9.26958 58.1052 8.74453 58.0819 8.21948C58.0585 7.69443 58.0935 7.18131 58.187 6.68012C58.187 6.56079 58.187 6.50113 58.187 6.50113C58.1169 6.21474 58.1169 5.94028 58.187 5.67775C58.257 5.41523 58.3388 5.17657 58.4322 4.96177C58.4088 4.91404 58.3972 4.85438 58.3972 4.78278C58.3972 4.71118 58.3738 4.65152 58.3271 4.60378C58.3738 4.43672 58.4439 4.30546 58.5373 4.21C58.6307 4.09067 58.7124 3.98327 58.7825 3.88781C58.8292 3.79234 58.8642 3.69688 58.8876 3.60141C58.9343 3.48208 58.9693 3.37469 58.9927 3.27922L59.2379 3.02863C59.4481 2.9809 59.67 2.96896 59.9035 2.99283C59.9736 3.0167 60.0436 3.0525 60.1137 3.10023C60.2071 3.14796 60.3005 3.19569 60.394 3.24342C60.5574 3.33889 60.7092 3.42242 60.8494 3.49402C61.0129 3.54175 61.188 3.55368 61.3749 3.52982C61.6318 3.62528 61.877 3.68494 62.1105 3.70881C62.3674 3.73268 62.6126 3.73268 62.8462 3.70881H62.9863C62.9863 3.70881 62.9863 3.72074 62.9863 3.74461C63.0097 3.74461 63.033 3.74461 63.0564 3.74461C63.1731 3.76848 63.2782 3.82814 63.3717 3.9236C63.4651 4.01907 63.4884 4.12647 63.4417 4.24579C63.395 4.60378 63.36 4.96177 63.3366 5.31976C63.3366 5.67775 63.3133 6.03574 63.2666 6.39373C63.2199 6.72786 63.1731 7.07391 63.1264 7.4319C63.0797 7.76603 63.0213 8.10015 62.9513 8.43427C62.9279 8.95933 62.8812 9.48438 62.8111 10.0094C62.7644 10.5106 62.7411 11.0118 62.7411 11.513C62.7411 11.5846 62.7411 11.6442 62.7411 11.692C62.7644 11.7397 62.7761 11.7874 62.7761 11.8352C62.6593 12.0738 62.5659 12.3125 62.4959 12.5512C62.4492 12.7898 62.3908 13.0404 62.3207 13.3029C62.274 13.4939 62.274 13.6967 62.3207 13.9115C62.3908 14.1979 62.4141 14.4843 62.3908 14.7707C62.3908 15.0571 62.3674 15.3554 62.3207 15.6657V15.8805C62.3674 15.9759 62.4141 16.0833 62.4608 16.2027C62.5309 16.322 62.5893 16.4413 62.636 16.5606C62.6126 16.6322 62.5893 16.7158 62.5659 16.8112C62.5426 16.8828 62.5192 16.9544 62.4959 17.026C62.5426 17.1454 62.5659 17.2766 62.5659 17.4198C62.5893 17.563 62.6126 17.6943 62.636 17.8136C62.7294 17.9329 62.8228 18.0523 62.9162 18.1716C63.0097 18.2671 63.0681 18.3864 63.0914 18.5296C63.0914 18.5773 63.1148 18.637 63.1615 18.7086C63.2082 18.7802 63.2432 18.8398 63.2666 18.8876C63.3133 19.0069 63.3833 19.1024 63.4768 19.174C63.5935 19.2456 63.6986 19.3052 63.792 19.353C63.9555 19.3768 64.1073 19.4126 64.2475 19.4604C64.3876 19.5081 64.5394 19.5558 64.7029 19.6036C64.7963 19.6036 64.8663 19.6036 64.9131 19.6036C64.9831 19.5797 65.0532 19.5678 65.1232 19.5678C65.17 19.5916 65.2283 19.6155 65.2984 19.6394C65.3918 19.6632 65.4736 19.6871 65.5436 19.7109C65.567 19.7348 65.5903 19.7706 65.6137 19.8183C65.637 19.8422 65.6604 19.8661 65.6838 19.8899C65.7305 20.0809 65.8589 20.2837 66.0691 20.4985C66.1859 20.594 66.291 20.7014 66.3844 20.8207C66.5012 20.9162 66.5829 21.0355 66.6296 21.1787Z" fill="black"/>
<path d="M83.6389 10.9044C83.6856 11.0476 83.6973 11.1908 83.6739 11.334C83.6739 11.4772 83.6506 11.6084 83.6038 11.7278C83.5571 11.8948 83.5221 12.0738 83.4987 12.2648C83.4987 12.4318 83.4987 12.6108 83.4987 12.8017C83.4987 13.0404 83.4871 13.2791 83.4637 13.5177C83.4637 13.7325 83.4637 13.9592 83.4637 14.1979C83.4637 14.365 83.4637 14.544 83.4637 14.7349C83.4637 14.9258 83.4404 15.1287 83.3937 15.3435C83.3002 15.7253 83.1951 16.1191 83.0784 16.5248C82.9616 16.9306 82.8682 17.3482 82.7981 17.7778C82.7748 17.8255 82.7514 17.8971 82.7281 17.9926C82.7281 18.0642 82.7047 18.1477 82.658 18.2432C82.4478 18.6966 82.2376 19.1978 82.0274 19.7467C81.934 19.8661 81.8289 19.9973 81.7121 20.1405C81.6187 20.2837 81.5136 20.415 81.3969 20.5343C81.3034 20.6059 81.1983 20.6656 81.0816 20.7133C80.9881 20.7611 80.8947 20.8088 80.8013 20.8565C80.7546 20.8565 80.7196 20.9042 80.6962 20.9997C80.7429 21.0474 80.778 21.1071 80.8013 21.1787C80.848 21.2503 80.883 21.31 80.9064 21.3577C80.7196 21.6441 80.4393 21.9186 80.0656 22.1811C79.9722 22.2049 79.8555 22.2407 79.7153 22.2885C79.5986 22.3123 79.4701 22.3362 79.33 22.3601C79.0964 22.5033 78.8279 22.6942 78.5242 22.9329C78.5009 22.9806 78.4659 23.0522 78.4192 23.1476C78.3724 23.2192 78.3257 23.2789 78.279 23.3266C78.1155 23.4221 77.9521 23.4579 77.7886 23.434C77.6485 23.4102 77.485 23.3863 77.2981 23.3624C77.2281 23.3863 77.158 23.4221 77.0879 23.4698C77.0412 23.4937 76.9828 23.5295 76.9128 23.5772C76.8661 23.6011 76.8077 23.6488 76.7376 23.7204C76.6909 23.7682 76.6442 23.804 76.5975 23.8278C76.3172 23.9472 76.037 23.983 75.7567 23.9352C75.4765 23.8875 75.1962 23.8994 74.916 23.971C74.7992 23.8994 74.6708 23.8398 74.5306 23.792C74.4139 23.7443 74.2971 23.6966 74.1803 23.6488C74.1803 23.6011 74.1803 23.5534 74.1803 23.5056C74.2037 23.4579 74.227 23.3982 74.2504 23.3266C74.2037 23.1596 74.0986 23.0641 73.9351 23.0403C73.7716 22.9925 73.6081 22.9448 73.4446 22.8971C73.3045 22.8493 73.1527 22.8493 72.9892 22.8971C72.8258 22.8971 72.744 22.7777 72.744 22.5391C72.6973 22.3243 72.6156 22.2169 72.4988 22.2169H72.3587C72.1952 22.2885 72.0317 22.3004 71.8682 22.2527C71.7281 22.1811 71.588 22.0856 71.4478 21.9663C71.3544 21.8708 71.296 21.7396 71.2727 21.5725C71.2727 21.4054 71.226 21.2384 71.1326 21.0713C71.0625 20.952 70.9457 20.8565 70.7822 20.7849C70.6421 20.6895 70.5137 20.594 70.3969 20.4985C70.2568 20.1405 70.1166 19.8064 69.9765 19.4962C69.8364 19.162 69.7079 18.8398 69.5912 18.5296C69.5211 18.3864 69.4861 18.2671 69.4861 18.1716C69.5094 18.0523 69.5211 17.9091 69.5211 17.742L69.416 17.563C69.416 17.563 69.3926 17.5153 69.3459 17.4198C69.1825 16.9425 69.0774 16.4652 69.0307 15.9879C68.9839 15.5105 69.0306 15.0213 69.1708 14.5201C69.1474 14.4485 69.1124 14.3769 69.0657 14.3053C69.0423 14.2337 69.0073 14.174 68.9606 14.1263C68.9139 14.007 68.9139 13.8877 68.9606 13.7683C69.0307 13.649 69.0657 13.5416 69.0657 13.4461C69.019 13.112 69.0306 12.8375 69.1007 12.6228C69.1474 12.5034 69.1591 12.3841 69.1357 12.2648C69.1124 12.1454 69.1124 12.038 69.1357 11.9426C69.2058 11.6562 69.2525 11.3817 69.2759 11.1192C69.2992 10.8328 69.3226 10.5583 69.3459 10.2958C69.3693 9.77077 69.4394 9.25765 69.5561 8.75646C69.6028 8.56554 69.6729 8.39847 69.7663 8.25528C69.8597 8.11208 69.9532 7.96889 70.0466 7.82569C70.0933 7.77796 70.1517 7.74216 70.2217 7.7183C70.2918 7.69443 70.3619 7.67056 70.4319 7.6467C70.572 7.62283 70.7122 7.59897 70.8523 7.5751C71.0158 7.55123 71.2026 7.52737 71.4128 7.5035C71.5296 7.52737 71.658 7.55123 71.7982 7.5751C71.9616 7.59897 72.1251 7.6109 72.2886 7.6109C72.4521 7.63476 72.6156 7.65863 72.779 7.6825C72.9425 7.6825 73.1177 7.69443 73.3045 7.7183C73.3279 7.78989 73.3512 7.84956 73.3746 7.89729C73.3979 7.94502 73.4213 7.99275 73.4446 8.04049C73.4446 8.20755 73.433 8.37461 73.4096 8.54167C73.4096 8.68487 73.4096 8.83999 73.4096 9.00706C73.433 9.07866 73.4563 9.15025 73.4797 9.22185C73.5264 9.26958 73.5614 9.34118 73.5848 9.43665C73.5614 9.53211 73.5264 9.63951 73.4797 9.75884C73.4563 9.87817 73.4213 9.9975 73.3746 10.1168C73.4446 10.4987 73.4797 10.9044 73.4797 11.334C73.4797 11.7397 73.503 12.1454 73.5497 12.5512C73.5965 12.8137 73.6315 13.0762 73.6548 13.3387C73.6782 13.5774 73.7249 13.828 73.795 14.0905C73.7716 14.2576 73.7833 14.4246 73.83 14.5917C73.8767 14.7588 73.9234 14.9258 73.9701 15.0929C74.0402 15.2599 74.0869 15.427 74.1103 15.5941C74.157 15.7611 74.2037 15.9401 74.2504 16.1311C74.3671 16.5129 74.5423 16.859 74.7758 17.1692C74.916 17.3124 75.0211 17.4079 75.0911 17.4556C75.1378 17.4795 75.1846 17.4914 75.2313 17.4914C75.3013 17.4914 75.3597 17.5033 75.4064 17.5272C75.5699 17.5272 75.6984 17.4795 75.7918 17.384C75.8852 17.2886 75.9903 17.2289 76.1071 17.205C76.364 17.0857 76.6092 16.9902 76.8427 16.9186C76.9595 16.9425 77.0763 16.9544 77.193 16.9544H77.4383L77.9988 16.5964C78.1155 16.4055 78.1973 16.1907 78.244 15.9521C78.2907 15.7134 78.3958 15.5105 78.5593 15.3435C78.6761 15.1525 78.7811 14.9616 78.8746 14.7707C78.968 14.5798 79.0847 14.4246 79.2249 14.3053C79.2716 13.9712 79.3066 13.6609 79.33 13.3745C79.3533 13.0881 79.4117 12.8017 79.5051 12.5154C79.5285 12.4438 79.5285 12.3722 79.5051 12.3006C79.5051 12.2051 79.5051 12.1216 79.5051 12.05C79.4818 11.9068 79.4584 11.7755 79.4351 11.6562C79.4351 11.513 79.4351 11.4175 79.4351 11.3698C79.4584 11.1073 79.4701 10.8686 79.4701 10.6538C79.4701 10.439 79.4818 10.2362 79.5051 10.0452C79.5285 9.8543 79.5402 9.66337 79.5402 9.47244C79.5402 9.25765 79.5518 9.06672 79.5752 8.89966C79.6219 8.51781 79.7854 8.25528 80.0656 8.11208C80.1591 8.06435 80.2408 8.02855 80.3109 8.00469C80.3809 7.95695 80.4627 7.92116 80.5561 7.89729C80.6495 7.87342 80.7429 7.86149 80.8363 7.86149C80.9298 7.86149 81.0465 7.84956 81.1867 7.82569C81.3034 7.84956 81.4202 7.88536 81.537 7.93309C81.6771 7.98082 81.8172 8.02855 81.9574 8.07628C82.0975 8.10015 82.2259 8.10015 82.3427 8.07628C82.4828 8.05242 82.623 8.01662 82.7631 7.96889C82.8565 7.99275 82.9382 8.01662 83.0083 8.04049C83.0784 8.06435 83.1601 8.10015 83.2535 8.14788C83.2769 8.17175 83.3002 8.20755 83.3236 8.25528C83.3469 8.27915 83.3586 8.31494 83.3586 8.36268C83.382 8.48201 83.4053 8.61327 83.4287 8.75646C83.452 8.89966 83.4637 9.04286 83.4637 9.18605C83.4871 9.47244 83.4987 9.75884 83.4987 10.0452C83.5221 10.3316 83.5688 10.618 83.6389 10.9044Z" fill="black"/>
<path d="M98.3473 8.97126C98.394 9.35311 98.3356 9.62757 98.1721 9.79463C98.0553 9.93783 97.9736 10.093 97.9269 10.26C97.9035 10.4271 97.8802 10.6061 97.8568 10.797C97.8101 10.8686 97.7634 10.9402 97.7167 11.0118C97.6933 11.0834 97.6583 11.155 97.6116 11.2266C97.5182 11.3221 97.4248 11.4295 97.3314 11.5488C97.2613 11.6681 97.1912 11.7874 97.1212 11.9068C97.0745 12.0022 97.0394 12.1096 97.0161 12.229C96.9927 12.3483 96.9577 12.4676 96.911 12.587C96.8876 12.6108 96.8643 12.6466 96.8409 12.6944C96.8409 12.7182 96.8292 12.7421 96.8059 12.7659C96.7825 12.7898 96.7475 12.8017 96.7008 12.8017C96.6774 12.8017 96.6541 12.8137 96.6307 12.8375H96.4556C95.9418 12.6228 95.4396 12.6108 94.9492 12.8017C94.8558 12.8256 94.774 12.8375 94.704 12.8375C94.6339 12.8375 94.5522 12.8375 94.4587 12.8375C94.3887 12.8614 94.3186 12.8733 94.2486 12.8733C94.2019 12.8733 94.1551 12.8853 94.1084 12.9091C93.8282 13.0285 93.583 13.1836 93.3728 13.3745C93.1626 13.5655 92.9641 13.7683 92.7772 13.9831C92.6838 14.2695 92.5787 14.5678 92.4619 14.8781C92.3685 15.1645 92.3218 15.4867 92.3218 15.8447C92.3218 15.8685 92.3101 15.9163 92.2868 15.9879C92.2634 16.0356 92.2401 16.0833 92.2167 16.1311C92.1934 16.2265 92.1583 16.31 92.1116 16.3816C92.0883 16.4294 92.0532 16.501 92.0065 16.5964C91.9598 16.7396 91.9014 16.8828 91.8314 17.026C91.7613 17.1692 91.7029 17.3124 91.6562 17.4556C91.7029 17.6227 91.6912 17.7778 91.6212 17.921C91.5745 18.0642 91.5511 18.2074 91.5511 18.3506C91.5978 18.5654 91.5978 18.7682 91.5511 18.9592C91.5278 19.1262 91.4927 19.3052 91.446 19.4962C91.376 19.7109 91.3409 19.9377 91.3409 20.1763C91.3643 20.3911 91.376 20.6059 91.376 20.8207C91.3526 21.0832 91.3409 21.3577 91.3409 21.6441C91.3643 21.9305 91.376 22.2049 91.376 22.4675C91.376 22.6345 91.3643 22.8135 91.3409 23.0045C91.3176 23.1954 91.3059 23.3863 91.3059 23.5772C91.2358 23.7204 91.1774 23.8159 91.1307 23.8636C90.9673 24.1262 90.7687 24.3051 90.5352 24.4006C90.3017 24.5199 90.0447 24.5677 89.7645 24.5438C89.5777 24.5199 89.3792 24.4961 89.169 24.4722C88.9821 24.4483 88.7953 24.4245 88.6085 24.4006C88.515 24.3767 88.3983 24.3409 88.2581 24.2932C88.118 24.2694 87.9896 24.2336 87.8728 24.1858C87.7794 24.2097 87.6976 24.2216 87.6276 24.2216C87.5809 24.2455 87.5225 24.2694 87.4524 24.2932C87.1488 24.1978 86.8685 24.0188 86.6116 23.7562C86.635 23.5892 86.6467 23.4221 86.6467 23.255C86.6467 23.088 86.6583 22.9209 86.6817 22.7539C86.6583 22.6823 86.635 22.5987 86.6116 22.5033C86.6116 22.3839 86.5883 22.2765 86.5416 22.1811C86.5182 22.0379 86.4832 21.8947 86.4365 21.7515C86.3898 21.6083 86.3781 21.4532 86.4015 21.2861C86.3781 20.9281 86.308 20.5105 86.1913 20.0331C86.238 19.9854 86.273 19.9257 86.2964 19.8541C86.3431 19.7587 86.3781 19.6751 86.4015 19.6036C86.4248 19.532 86.4365 19.4723 86.4365 19.4246C86.4598 19.353 86.4715 19.2814 86.4715 19.2098C86.4715 19.162 86.4832 19.1262 86.5065 19.1024C86.5299 19.0546 86.5182 19.0069 86.4715 18.9592C86.4482 18.8876 86.4248 18.816 86.4015 18.7444C86.4015 18.6489 86.3898 18.5654 86.3664 18.4938C86.3431 18.2551 86.3431 18.0165 86.3664 17.7778C86.3898 17.6823 86.4015 17.5988 86.4015 17.5272C86.4248 17.4317 86.4482 17.3363 86.4715 17.2408C86.5182 17.1215 86.5299 16.9902 86.5065 16.847C86.5065 16.7038 86.4482 16.5845 86.3314 16.489C86.308 16.4652 86.2847 16.4413 86.2613 16.4174C86.2613 16.3697 86.238 16.3339 86.1913 16.31C86.1679 16.1907 86.1446 16.0595 86.1212 15.9163C86.1212 15.7731 86.0978 15.6418 86.0511 15.5225C86.0278 15.3554 85.9928 15.2003 85.946 15.0571C85.9227 14.9139 85.911 14.7588 85.911 14.5917C85.9577 14.3053 85.9694 14.0308 85.946 13.7683C85.9227 13.4819 85.946 13.1955 86.0161 12.9091C86.0161 12.8614 86.0044 12.8017 85.9811 12.7302C85.9811 12.6586 85.9811 12.5989 85.9811 12.5512C85.9577 12.2886 85.9344 12.0261 85.911 11.7636C85.911 11.5011 85.9577 11.2385 86.0511 10.976C86.0978 10.8805 86.1212 10.7731 86.1212 10.6538C86.1212 10.5345 86.1212 10.4151 86.1212 10.2958C86.1212 10.081 86.1212 9.87817 86.1212 9.68724C86.1446 9.47244 86.2029 9.26958 86.2964 9.07866C86.2964 9.00706 86.2613 8.88773 86.1913 8.72067C86.238 8.60134 86.273 8.48201 86.2964 8.36268C86.3431 8.21948 86.3781 8.08822 86.4015 7.96889C86.4482 7.84956 86.4832 7.74216 86.5065 7.6467C86.5299 7.52737 86.5533 7.41997 86.5766 7.32451C86.7167 7.18131 86.8452 7.12164 86.962 7.14551C87.1955 7.21711 87.429 7.22904 87.6626 7.18131C87.9195 7.10971 88.1647 7.08585 88.3983 7.10971C88.4683 7.10971 88.5384 7.09778 88.6085 7.07391C88.6785 7.02618 88.7486 6.99038 88.8186 6.96652C89.2157 6.84719 89.5426 6.85912 89.7995 7.00232C89.963 7.28871 90.0564 7.5035 90.0798 7.6467C90.1031 7.78989 90.1265 8.13595 90.1498 8.68487C90.2199 8.94739 90.3484 9.19798 90.5352 9.43665C90.5819 9.48438 90.652 9.52018 90.7454 9.54404C90.8622 9.54404 90.9439 9.52018 90.9906 9.47244C91.084 9.40085 91.1658 9.34118 91.2358 9.29345C91.3059 9.22185 91.376 9.13832 91.446 9.04286C91.5861 8.92353 91.7146 8.8042 91.8314 8.68487C91.9715 8.54167 92.0883 8.42234 92.1817 8.32688C92.4386 8.20755 92.6838 8.08822 92.9174 7.96889C93.1742 7.84956 93.4545 7.73023 93.7581 7.6109H94.5638L94.6339 7.5751C94.6573 7.5751 94.6689 7.5751 94.6689 7.5751C94.6923 7.55123 94.7156 7.55123 94.739 7.5751L94.8441 7.5393C95.1244 7.6825 95.3696 7.71829 95.5798 7.6467C95.9534 7.52737 96.3154 7.5751 96.6657 7.78989C96.8759 7.88536 97.0745 7.98082 97.2613 8.07628C97.4481 8.17175 97.6466 8.27915 97.8568 8.39847C97.9269 8.49394 98.0086 8.5894 98.1021 8.68487C98.1955 8.78033 98.2772 8.87579 98.3473 8.97126Z" fill="black"/>
<path d="M115.426 14.5917C115.403 14.6872 115.356 14.7826 115.286 14.8781C115.239 14.9497 115.193 15.0332 115.146 15.1287L115.251 16.2742C115.251 16.4413 115.239 16.6084 115.216 16.7754C115.216 16.9186 115.216 17.0857 115.216 17.2766C115.193 17.3721 115.157 17.4556 115.111 17.5272C115.087 17.5749 115.052 17.6465 115.006 17.742C115.052 17.7897 115.087 17.8494 115.111 17.921C115.157 17.9926 115.193 18.0523 115.216 18.1C115.239 18.4818 115.169 18.8398 115.006 19.174C114.842 19.5081 114.737 19.878 114.69 20.2837C114.504 20.3792 114.34 20.4985 114.2 20.6417C114.083 20.7611 114.025 20.94 114.025 21.1787C113.931 21.298 113.826 21.4174 113.71 21.5367C113.593 21.656 113.464 21.7515 113.324 21.8231C113.301 21.847 113.242 21.8828 113.149 21.9305C113.009 22.0975 112.857 22.2646 112.694 22.4317C112.553 22.5749 112.39 22.7061 112.203 22.8255C112.11 22.9209 112.028 23.0403 111.958 23.1834C111.911 23.3028 111.841 23.4221 111.748 23.5414C111.584 23.6369 111.409 23.7204 111.222 23.792C111.059 23.8636 110.907 23.9352 110.767 24.0068C110.603 24.0307 110.487 24.0188 110.417 23.971C110.346 23.8994 110.265 23.8517 110.171 23.8278C110.078 23.8517 109.984 23.9233 109.891 24.0426C109.821 24.1381 109.704 24.2455 109.541 24.3648C109.517 24.3887 109.459 24.4125 109.366 24.4364C109.296 24.4603 109.225 24.4961 109.155 24.5438C109.062 24.5677 108.969 24.6035 108.875 24.6512C108.782 24.7228 108.677 24.7825 108.56 24.8302C108.326 24.7586 108.093 24.687 107.859 24.6154C107.626 24.5677 107.38 24.5915 107.124 24.687C106.96 24.6393 106.808 24.5796 106.668 24.508C106.528 24.4603 106.376 24.4364 106.213 24.4364C106.096 24.4364 105.932 24.3529 105.722 24.1858C105.629 24.2336 105.477 24.2574 105.267 24.2574C105.15 24.2574 105.045 24.1978 104.952 24.0784C104.882 23.983 104.776 23.9591 104.636 24.0068C104.403 23.9352 104.169 23.8517 103.936 23.7562C103.725 23.6369 103.527 23.5295 103.34 23.434C103.177 23.3624 103.037 23.267 102.92 23.1476C102.803 23.0045 102.686 22.8732 102.569 22.7539C102.546 22.7061 102.523 22.6703 102.499 22.6465C102.476 22.5987 102.441 22.551 102.394 22.5033C102.348 22.3123 102.266 22.1453 102.149 22.0021C102.032 21.8589 101.915 21.7157 101.799 21.5725C101.729 21.31 101.647 21.0713 101.553 20.8565C101.53 20.7611 101.472 20.6656 101.378 20.5701C101.308 20.4508 101.25 20.3315 101.203 20.2121C101.18 19.9496 101.121 19.7109 101.028 19.4962C100.958 19.2575 100.83 19.0546 100.643 18.8876C100.666 18.7921 100.678 18.7086 100.678 18.637C100.678 18.5654 100.689 18.4818 100.713 18.3864C100.666 18.2193 100.596 18.0165 100.503 17.7778C100.549 17.5869 100.573 17.384 100.573 17.1692C100.596 16.9306 100.619 16.6919 100.643 16.4532C100.619 16.31 100.584 16.1669 100.538 16.0237C100.514 15.8566 100.538 15.6895 100.608 15.5225V14.6991C100.491 14.1502 100.503 13.6251 100.643 13.1239C100.713 12.933 100.724 12.7063 100.678 12.4438C100.678 11.9664 100.678 11.4891 100.678 11.0118C100.701 10.5106 100.689 10.0214 100.643 9.54404C100.619 9.49631 100.619 9.46051 100.643 9.43665C100.689 9.10252 100.713 8.7684 100.713 8.43427C100.713 8.07628 100.713 7.7183 100.713 7.36031C100.713 7.31257 100.713 7.26484 100.713 7.21711C100.713 7.14551 100.724 7.09778 100.748 7.07391C100.841 6.90685 100.888 6.73979 100.888 6.57273C100.911 6.3818 100.923 6.20281 100.923 6.03574C100.97 5.84482 100.981 5.64195 100.958 5.42716C100.958 5.1885 100.97 4.94984 100.993 4.71118C101.086 4.56799 101.168 4.41286 101.238 4.24579C101.332 4.05487 101.355 3.86394 101.308 3.67301V3.52982C101.355 3.48208 101.378 3.43435 101.378 3.38662C101.378 3.31502 101.39 3.26729 101.413 3.24342C101.53 2.9809 101.612 2.71837 101.659 2.45585C101.705 2.16945 101.764 1.895 101.834 1.63247C101.927 1.48927 102.021 1.31028 102.114 1.09549C102.371 1.02389 102.628 0.988088 102.885 0.988088C103.001 0.988088 103.118 1.00002 103.235 1.02389C103.352 1.02389 103.457 1.01195 103.55 0.988088C103.807 0.940357 104.064 0.916491 104.321 0.916491C104.601 0.916491 104.882 0.928424 105.162 0.95229C105.232 0.976156 105.302 0.988088 105.372 0.988088C105.465 0.964223 105.547 0.940357 105.617 0.916491C105.711 0.916491 105.792 0.928424 105.862 0.95229C105.956 0.976156 106.038 0.976156 106.108 0.95229C106.154 0.95229 106.189 0.95229 106.213 0.95229C106.259 0.928424 106.294 0.916491 106.318 0.916491C106.341 1.01196 106.365 1.10742 106.388 1.20288C106.435 1.27448 106.47 1.36994 106.493 1.48927C106.423 1.87113 106.376 2.15752 106.353 2.34845C106.329 2.53938 106.329 2.7303 106.353 2.92123C106.4 3.08829 106.446 3.36275 106.493 3.74461C106.446 4.05487 106.4 4.36512 106.353 4.67538C106.306 4.96177 106.329 5.27203 106.423 5.60615C106.353 6.01188 106.329 6.40567 106.353 6.78752C106.353 7.09778 106.341 7.40804 106.318 7.7183C106.318 8.02855 106.283 8.33881 106.213 8.64907C106.259 8.7684 106.236 8.87579 106.143 8.97126C106.073 9.04286 106.014 9.13832 105.967 9.25765C105.967 9.47244 105.944 9.69917 105.897 9.93783C105.851 10.1526 105.804 10.3794 105.757 10.618C105.734 10.7373 105.711 10.8686 105.687 11.0118C105.687 11.155 105.664 11.2982 105.617 11.4414C105.617 11.4653 105.641 11.4891 105.687 11.513C105.734 11.513 105.757 11.5249 105.757 11.5488C106.038 11.4295 106.271 11.2624 106.458 11.0476C106.645 10.8328 106.797 10.5941 106.913 10.3316C107.17 10.26 107.415 10.1765 107.649 10.081C107.883 9.98556 108.116 9.8543 108.35 9.68724C108.443 9.7111 108.536 9.73497 108.63 9.75884C108.747 9.7827 108.852 9.7827 108.945 9.75884C109.062 9.75884 109.155 9.77077 109.225 9.79463C109.319 9.79463 109.412 9.79463 109.506 9.79463C109.763 9.79463 109.996 9.83043 110.206 9.90203C110.417 9.97363 110.638 10.0452 110.872 10.1168C111.129 10.2123 111.386 10.3197 111.643 10.439C111.9 10.5345 112.156 10.618 112.413 10.6896C112.624 10.7135 112.81 10.8567 112.974 11.1192C113.021 11.2147 113.079 11.3101 113.149 11.4056C113.242 11.5011 113.348 11.5846 113.464 11.6562C113.651 11.7516 113.815 11.8829 113.955 12.05C114.095 12.217 114.235 12.396 114.375 12.587C114.422 12.6347 114.539 12.7063 114.725 12.8017C114.842 13.0643 114.982 13.3507 115.146 13.6609C115.309 13.9473 115.403 14.2576 115.426 14.5917ZM110.697 16.4532C110.673 16.4055 110.662 16.3578 110.662 16.31C110.662 16.2623 110.638 16.2146 110.592 16.1669C110.405 16.0237 110.265 15.8327 110.171 15.5941C110.078 15.3554 109.891 15.2599 109.611 15.3077C109.284 15.3793 108.992 15.3673 108.735 15.2719C108.595 15.2241 108.49 15.2003 108.42 15.2003C108.21 15.2241 107.999 15.248 107.789 15.2719C107.602 15.2957 107.415 15.3196 107.229 15.3435C107.182 15.3673 107.135 15.3912 107.089 15.4151C107.042 15.4389 106.983 15.4509 106.913 15.4509C106.75 15.6179 106.563 15.7969 106.353 15.9879C106.143 16.1788 105.979 16.4055 105.862 16.668C105.839 16.9783 105.827 17.217 105.827 17.384C105.851 17.5511 105.897 17.7539 105.967 17.9926C105.991 18.0165 106.014 18.0642 106.038 18.1358C106.061 18.1835 106.084 18.2313 106.108 18.279C106.224 18.3506 106.294 18.458 106.318 18.6012C106.365 18.7444 106.446 18.8518 106.563 18.9234C106.61 18.9711 106.645 19.0308 106.668 19.1024C106.715 19.1501 106.75 19.1978 106.773 19.2456C106.797 19.5797 106.913 19.8541 107.124 20.0689C107.17 20.0928 107.205 20.1167 107.229 20.1405C107.275 20.1405 107.31 20.1525 107.334 20.1763C107.521 20.1763 107.649 20.1405 107.719 20.0689C107.859 19.9973 108.011 19.9496 108.174 19.9257C108.361 19.878 108.525 19.8064 108.665 19.7109C108.805 19.5916 108.969 19.532 109.155 19.532C109.366 19.532 109.552 19.4842 109.716 19.3888C109.739 19.3888 109.798 19.3649 109.891 19.3172C110.008 19.1262 110.136 18.9592 110.276 18.816C110.417 18.6489 110.533 18.458 110.627 18.2432V17.384C110.65 17.2408 110.662 17.0857 110.662 16.9186C110.685 16.7516 110.697 16.5964 110.697 16.4532Z" fill="black"/>
<path d="M134.512 22.3243C134.582 22.4913 134.605 22.6465 134.582 22.7897C134.558 22.9329 134.512 23.076 134.442 23.2192C134.418 23.2431 134.372 23.2789 134.302 23.3266C134.232 23.3505 134.173 23.3863 134.126 23.434C134.033 23.4579 133.951 23.4698 133.881 23.4698C133.811 23.4698 133.729 23.4937 133.636 23.5414C133.286 23.613 133.075 23.804 133.005 24.1142C132.982 24.162 132.935 24.2216 132.865 24.2932C132.702 24.3171 132.585 24.3409 132.515 24.3648C132.445 24.4125 132.305 24.4961 132.095 24.6154C131.931 24.6154 131.768 24.6393 131.604 24.687C131.441 24.7347 131.289 24.8302 131.149 24.9734C131.102 24.9734 131.067 24.9734 131.044 24.9734C131.02 24.9973 130.985 25.0092 130.939 25.0092C130.845 25.0569 130.74 25.0331 130.623 24.9376C130.506 24.866 130.448 24.7705 130.448 24.6512V24.4364C130.355 24.3887 130.238 24.3887 130.098 24.4364C129.981 24.4841 129.888 24.4364 129.818 24.2932V23.7562C129.747 23.7085 129.677 23.6727 129.607 23.6488C129.561 23.6011 129.502 23.5653 129.432 23.5414C129.339 23.3505 129.234 23.1476 129.117 22.9329C129 22.7181 128.883 22.5271 128.767 22.3601C128.673 22.2885 128.591 22.2646 128.521 22.2885C128.451 22.3123 128.393 22.3481 128.346 22.3959C128.299 22.4436 128.264 22.5033 128.241 22.5749C128.218 22.6226 128.183 22.6703 128.136 22.7181C128.089 22.7658 128.054 22.8255 128.031 22.8971C128.008 22.9687 127.973 23.0283 127.926 23.076C127.622 23.2192 127.319 23.3505 127.015 23.4698C126.711 23.5653 126.419 23.6488 126.139 23.7204C125.976 23.8398 125.812 23.9472 125.649 24.0426C125.485 24.1381 125.333 24.2336 125.193 24.329C125.053 24.3529 124.913 24.3887 124.773 24.4364C124.633 24.4841 124.504 24.5199 124.388 24.5438C124.247 24.4722 124.107 24.4483 123.967 24.4722C123.85 24.5199 123.699 24.5677 123.512 24.6154C123.302 24.5677 123.08 24.508 122.846 24.4364C122.613 24.3887 122.367 24.3409 122.111 24.2932C122.04 24.3171 121.97 24.329 121.9 24.329C121.83 24.329 121.772 24.3409 121.725 24.3648C121.632 24.3171 121.55 24.2694 121.48 24.2216C121.433 24.1739 121.363 24.1381 121.27 24.1142C121.153 24.0665 121.048 24.0665 120.954 24.1142C120.861 24.162 120.756 24.2097 120.639 24.2574C120.522 24.2097 120.394 24.1739 120.254 24.15C120.114 24.15 119.974 24.1381 119.833 24.1142C119.717 23.9949 119.612 23.8875 119.518 23.792C119.448 23.6966 119.401 23.5772 119.378 23.434C119.331 23.3863 119.285 23.3505 119.238 23.3266C119.191 23.2789 119.156 23.2431 119.133 23.2192C119.039 22.8851 118.934 22.5987 118.818 22.3601C118.491 21.6441 118.269 20.8565 118.152 19.9973C118.105 19.9496 118.059 19.9019 118.012 19.8541C117.965 19.7825 117.907 19.7109 117.837 19.6394C117.813 19.4246 117.79 19.2217 117.767 19.0308C117.743 18.816 117.708 18.5892 117.662 18.3506C117.708 18.2074 117.732 18.0761 117.732 17.9568C117.685 17.7181 117.638 17.5033 117.591 17.3124C117.685 17.026 117.778 16.7396 117.872 16.4532C117.988 16.1668 118.024 15.8685 117.977 15.5583C118.024 15.4628 118.082 15.3793 118.152 15.3077C118.222 15.2122 118.28 15.1287 118.327 15.0571C118.537 14.8184 118.689 14.544 118.783 14.2337C118.853 13.9712 118.969 13.7445 119.133 13.5535C119.32 13.3626 119.518 13.2075 119.728 13.0881C119.985 12.9688 120.231 12.8495 120.464 12.7302C120.721 12.587 120.966 12.4676 121.2 12.3722C121.246 12.3722 121.305 12.3841 121.375 12.408C121.468 12.408 121.538 12.396 121.585 12.3722C122.005 12.3006 122.367 12.2767 122.671 12.3006C122.811 12.3244 122.951 12.3244 123.091 12.3006C123.232 12.2767 123.36 12.2648 123.477 12.2648L124.212 12.1216C124.353 12.1454 124.493 12.1812 124.633 12.229C124.773 12.2767 124.913 12.2648 125.053 12.1932C125.1 12.1932 125.135 12.2051 125.158 12.229C125.205 12.229 125.24 12.229 125.263 12.229C125.38 12.2767 125.485 12.3364 125.579 12.408C125.672 12.4557 125.777 12.4796 125.894 12.4796C126.151 12.5273 126.314 12.4796 126.384 12.3364C126.361 11.9306 126.326 11.6681 126.279 11.5488C126.256 11.4295 126.186 11.2385 126.069 10.976C125.999 10.8328 125.952 10.6896 125.929 10.5464C125.906 10.3794 125.882 10.2242 125.859 10.081C125.836 9.98556 125.812 9.90203 125.789 9.83043C125.789 9.73497 125.742 9.63951 125.649 9.54404C125.345 9.44858 124.971 9.37698 124.528 9.32925H124.318C124.107 9.42471 123.885 9.47244 123.652 9.47244C123.418 9.47244 123.173 9.49631 122.916 9.54404C122.753 9.56791 122.578 9.61564 122.391 9.68724C122.227 9.75884 122.052 9.8185 121.865 9.86623C121.678 9.9617 121.492 9.91397 121.305 9.72304C121.235 9.50824 121.2 9.29345 121.2 9.07866C121.223 8.84 121.246 8.60134 121.27 8.36268C121.223 8.19561 121.165 8.00469 121.095 7.78989C121.025 7.55123 120.99 7.27677 120.99 6.96652L121.025 6.71592C121.001 6.66819 120.954 6.62046 120.884 6.57273C120.838 6.525 120.791 6.4892 120.744 6.46533C120.674 6.39373 120.663 6.32213 120.709 6.25054C120.709 6.17894 120.744 6.14314 120.814 6.14314C121.001 6.09541 121.176 6.05961 121.34 6.03574C121.503 6.01188 121.667 5.98801 121.83 5.96414L122.251 5.53456C122.297 5.51069 122.356 5.49876 122.426 5.49876C122.963 5.59422 123.348 5.63002 123.582 5.60615C123.839 5.58229 124.224 5.48683 124.738 5.31976C124.995 5.34363 125.24 5.37943 125.474 5.42716C125.73 5.47489 125.987 5.48682 126.244 5.46296C126.314 5.53456 126.384 5.60616 126.454 5.67775C126.548 5.72549 126.641 5.78515 126.735 5.85675C126.851 5.80902 126.968 5.77322 127.085 5.74935C127.202 5.70162 127.307 5.66582 127.4 5.64195C127.54 5.73742 127.692 5.83288 127.856 5.92835C127.973 5.95221 128.066 5.92835 128.136 5.85675C128.229 5.78515 128.323 5.74935 128.416 5.74935C128.626 5.77322 128.79 5.88061 128.907 6.07154C129.047 6.2386 129.199 6.3818 129.362 6.50113C129.502 6.59659 129.631 6.71592 129.747 6.85912C129.888 7.00232 130.028 7.13358 130.168 7.25291C130.215 7.32451 130.261 7.3961 130.308 7.4677C130.355 7.5393 130.39 7.6109 130.413 7.6825C130.53 7.77796 130.635 7.86149 130.728 7.93309C130.822 7.98082 130.904 8.05242 130.974 8.14788C131.09 8.24335 131.207 8.31494 131.324 8.36268C131.464 8.41041 131.569 8.49394 131.639 8.61327C131.686 8.7326 131.733 8.86386 131.779 9.00706C131.826 9.12639 131.908 9.23378 132.025 9.32925C132.095 9.56791 132.165 9.8185 132.235 10.081C132.305 10.3197 132.316 10.5703 132.27 10.8328C132.27 10.9521 132.258 11.0595 132.235 11.155C132.281 11.2743 132.316 11.4056 132.34 11.5488C132.363 11.692 132.398 11.8232 132.445 11.9426V12.1216C132.445 12.1932 132.433 12.2767 132.41 12.3722C132.41 12.4438 132.422 12.5034 132.445 12.5512C132.492 12.6944 132.55 12.8017 132.62 12.8733C132.62 13.0165 132.562 13.1478 132.445 13.2671C132.398 13.291 132.34 13.3149 132.27 13.3387C132.2 13.3626 132.141 13.3984 132.095 13.4461C131.814 13.6132 131.779 13.828 131.989 14.0905C132.013 14.1144 132.048 14.1621 132.095 14.2337C132.165 14.2814 132.211 14.3411 132.235 14.4127C132.258 14.5082 132.27 14.6156 132.27 14.7349C132.27 14.8304 132.281 14.9378 132.305 15.0571C132.211 15.5105 132.036 15.9401 131.779 16.3458C131.849 16.68 131.954 17.0022 132.095 17.3124C132.258 17.6227 132.398 17.9449 132.515 18.279C132.632 18.3506 132.725 18.4222 132.795 18.4938C132.865 18.5654 132.947 18.625 133.04 18.6728C133.064 18.7444 133.075 18.7921 133.075 18.816C133.099 18.8398 133.111 18.8756 133.111 18.9234C133.111 19.162 133.134 19.4007 133.181 19.6394C133.251 19.878 133.332 20.1047 133.426 20.3195C133.519 20.5343 133.613 20.7372 133.706 20.9281C133.799 21.119 133.916 21.31 134.056 21.5009C134.173 21.5964 134.267 21.7276 134.337 21.8947C134.407 22.0617 134.465 22.2049 134.512 22.3243ZM126.84 17.4914C126.7 17.1334 126.525 16.8948 126.314 16.7754C126.057 16.6561 125.894 16.501 125.824 16.31C125.801 16.2146 125.754 16.1549 125.684 16.1311C125.614 16.1072 125.544 16.0833 125.474 16.0595C125.38 16.0595 125.263 16.0714 125.123 16.0953C125.007 16.0953 124.89 16.1072 124.773 16.1311C124.633 16.1311 124.493 16.1072 124.353 16.0595C124.236 16.0117 124.119 15.9759 124.002 15.9521C123.792 15.9521 123.594 16.0117 123.407 16.1311C123.313 16.2027 123.232 16.2742 123.161 16.3458C123.091 16.3936 123.021 16.4652 122.951 16.5606L122.496 17.4198C122.543 17.563 122.601 17.6943 122.671 17.8136C122.741 17.9091 122.741 18.0523 122.671 18.2432C122.718 18.458 122.764 18.6847 122.811 18.9234C122.881 19.1382 122.975 19.353 123.091 19.5678C123.138 19.6155 123.173 19.6394 123.197 19.6394C123.453 19.6871 123.71 19.7109 123.967 19.7109C124.224 19.7109 124.469 19.699 124.703 19.6751C124.796 19.6751 124.866 19.6632 124.913 19.6394C125.17 19.4962 125.485 19.3649 125.859 19.2456C125.999 19.2217 126.128 19.1143 126.244 18.9234C126.338 18.7086 126.431 18.4818 126.525 18.2432C126.618 17.9807 126.723 17.7301 126.84 17.4914ZM119.413 23.3624C119.413 23.3624 119.401 23.3624 119.378 23.3624C119.378 23.3624 119.378 23.3863 119.378 23.434C119.425 23.3863 119.436 23.3624 119.413 23.3624Z" fill="black"/>
<path d="M150.71 18.816C150.71 19.0069 150.71 19.2098 150.71 19.4246C150.733 19.6155 150.722 19.8064 150.675 19.9973C150.628 20.1167 150.616 20.2241 150.64 20.3195C150.686 20.4389 150.686 20.5701 150.64 20.7133C150.616 20.8326 150.616 20.952 150.64 21.0713C150.686 21.2384 150.698 21.4293 150.675 21.6441C150.651 21.835 150.651 22.0259 150.675 22.2169C150.581 22.3839 150.43 22.4675 150.219 22.4675C149.986 22.4675 149.729 22.4794 149.449 22.5033C149.192 22.5271 148.935 22.5868 148.678 22.6823C148.538 22.73 148.386 22.7539 148.223 22.7539C148.059 22.7539 147.896 22.7539 147.732 22.7539C147.592 22.6584 147.487 22.5749 147.417 22.5033C147.137 22.5987 146.903 22.4913 146.716 22.1811C146.623 22.0379 146.541 21.8828 146.471 21.7157C146.424 21.5486 146.401 21.3696 146.401 21.1787C146.424 20.9878 146.424 20.7969 146.401 20.6059C146.378 20.415 146.378 20.2121 146.401 19.9973C146.448 19.6393 146.401 19.2933 146.261 18.9592C146.237 18.8876 146.214 18.816 146.191 18.7444C146.167 18.6728 146.156 18.6012 146.156 18.5296C146.156 18.2671 146.144 18.0045 146.121 17.742C146.097 17.4556 146.051 17.1931 145.981 16.9544C145.957 16.8351 145.934 16.7277 145.91 16.6322C145.91 16.5129 145.91 16.4055 145.91 16.31C145.84 16.0237 145.689 15.7969 145.455 15.6299C145.432 15.4389 145.408 15.2719 145.385 15.1287C145.362 14.9616 145.327 14.7826 145.28 14.5917C145.233 14.544 145.14 14.4724 145 14.3769C144.906 14.3053 144.789 14.2456 144.649 14.1979C144.533 14.1502 144.416 14.0905 144.299 14.0189C144.252 13.9712 144.194 13.9115 144.124 13.8399C144.077 13.7445 144.019 13.6609 143.949 13.5893H143.739C143.645 13.6132 143.563 13.6371 143.493 13.6609C143.423 13.6609 143.33 13.649 143.213 13.6251C143.166 13.6013 143.108 13.6013 143.038 13.6251C142.968 13.6251 142.909 13.6251 142.863 13.6251C142.746 13.7922 142.629 13.9712 142.512 14.1621C142.419 14.2337 142.326 14.3053 142.232 14.3769C142.162 14.4246 142.104 14.4724 142.057 14.5201C141.987 14.5917 141.952 14.6633 141.952 14.7349L141.707 15.4867C141.753 15.6299 141.753 15.7731 141.707 15.9163C141.66 16.0356 141.672 16.1669 141.742 16.31C141.765 16.3816 141.765 16.4532 141.742 16.5248C141.718 16.5964 141.695 16.6561 141.672 16.7038C141.602 16.7993 141.59 16.8709 141.637 16.9186C141.683 16.9664 141.718 17.026 141.742 17.0976C141.765 17.1215 141.788 17.1692 141.812 17.2408C141.812 17.5272 141.812 17.8017 141.812 18.0642C141.812 18.3267 141.765 18.5892 141.672 18.8518C141.695 18.9472 141.707 19.0427 141.707 19.1382C141.73 19.2098 141.753 19.3052 141.777 19.4246C141.753 19.5678 141.718 19.7348 141.672 19.9257C141.648 20.0928 141.648 20.2718 141.672 20.4627C141.695 20.5821 141.695 20.7133 141.672 20.8565C141.672 20.9997 141.648 21.1429 141.602 21.2861C141.578 21.3577 141.578 21.4293 141.602 21.5009C141.672 21.7873 141.672 22.0379 141.602 22.2527C141.532 22.4675 141.403 22.6942 141.216 22.9329C141.193 22.9567 141.146 22.9806 141.076 23.0045C141.006 23.0283 140.948 23.0522 140.901 23.076C140.854 23.1238 140.808 23.1596 140.761 23.1834C140.714 23.1834 140.667 23.1954 140.621 23.2192C140.527 23.2192 140.434 23.2192 140.34 23.2192C140.247 23.1954 140.165 23.1834 140.095 23.1834C140.002 23.2073 139.92 23.2431 139.85 23.2908C139.803 23.3147 139.722 23.3624 139.605 23.434C139.301 23.3863 138.986 23.3266 138.659 23.255C138.355 23.1834 138.052 23.2073 137.748 23.3266C137.608 23.3028 137.491 23.2431 137.398 23.1476C137.304 23.0522 137.223 22.9448 137.153 22.8255C137.059 22.6823 137.001 22.5271 136.977 22.3601C136.954 22.1691 136.919 21.9901 136.872 21.8231C136.919 21.4174 136.942 21.1429 136.942 20.9997C136.942 20.8326 136.907 20.4747 136.837 19.9257C136.907 19.5439 136.954 19.162 136.977 18.7802C137.001 18.3745 137.012 17.9807 137.012 17.5988C137.012 17.0976 137.012 16.5845 137.012 16.0595C137.012 15.5344 137.024 15.0094 137.047 14.4843C137.047 14.3411 137.059 14.1979 137.083 14.0547C137.106 13.9115 137.129 13.7803 137.153 13.6609C137.199 13.3984 137.246 13.1478 137.293 12.9091C137.339 12.6705 137.398 12.4438 137.468 12.229C137.515 12.0619 137.596 11.9187 137.713 11.7994C137.83 11.68 137.912 11.5369 137.958 11.3698C138.005 11.0357 138.098 10.7493 138.239 10.5106C138.402 10.2481 138.566 9.9975 138.729 9.75884C138.846 9.42471 139.056 9.29345 139.36 9.36505C139.406 9.36505 139.43 9.35311 139.43 9.32925C139.5 9.25765 139.511 9.16219 139.465 9.04286C139.441 8.92353 139.476 8.81613 139.57 8.72067C139.78 8.52974 140.025 8.38654 140.305 8.29108C140.586 8.17175 140.843 8.06435 141.076 7.96889C141.286 7.96889 141.426 7.99275 141.497 8.04049C141.8 8.13595 142.092 8.13595 142.372 8.04049C142.582 7.99275 142.769 8.05242 142.933 8.21948C143.166 8.26721 143.388 8.31494 143.598 8.36268C143.809 8.41041 144.03 8.45814 144.264 8.50587C144.357 8.48201 144.451 8.47007 144.544 8.47007C144.638 8.44621 144.731 8.42234 144.825 8.39847C145.058 8.49394 145.245 8.63713 145.385 8.82806C145.548 8.99512 145.712 9.17412 145.875 9.36505C145.992 9.46051 146.121 9.49631 146.261 9.47244C146.401 9.44858 146.553 9.46051 146.716 9.50824C146.833 9.62757 146.95 9.75884 147.067 9.90203C147.207 10.0452 147.347 10.1765 147.487 10.2958C147.51 10.3913 147.534 10.4867 147.557 10.5822C147.604 10.6538 147.639 10.7373 147.662 10.8328C147.779 10.8567 147.861 10.9163 147.907 11.0118C147.954 11.1073 147.989 11.1908 148.012 11.2624C148.246 11.3579 148.479 11.4295 148.713 11.4772C148.83 11.5965 148.935 11.7397 149.028 11.9068C149.122 12.05 149.274 12.1216 149.484 12.1216C149.53 12.3602 149.577 12.575 149.624 12.7659C149.671 12.9569 149.717 13.1478 149.764 13.3387C149.811 13.6967 149.892 14.007 150.009 14.2695C150.103 14.4604 150.184 14.6633 150.254 14.8781C150.324 15.069 150.36 15.2838 150.36 15.5225C150.383 15.6657 150.43 15.7969 150.5 15.9163C150.593 16.0356 150.663 16.1669 150.71 16.31C150.686 16.4055 150.663 16.501 150.64 16.5964C150.64 16.6919 150.64 16.7993 150.64 16.9186C150.64 17.0141 150.64 17.0976 150.64 17.1692C150.663 17.2408 150.686 17.3363 150.71 17.4556C150.71 17.5033 150.71 17.5749 150.71 17.6704C150.733 17.742 150.733 17.8017 150.71 17.8494C150.663 18.0165 150.651 18.1835 150.675 18.3506C150.698 18.5176 150.71 18.6728 150.71 18.816Z" fill="black"/>
<path d="M169.921 22.3243C169.991 22.4913 170.015 22.6465 169.991 22.7897C169.968 22.9329 169.921 23.076 169.851 23.2192C169.828 23.2431 169.781 23.2789 169.711 23.3266C169.641 23.3505 169.583 23.3863 169.536 23.434C169.442 23.4579 169.361 23.4698 169.291 23.4698C169.221 23.4698 169.139 23.4937 169.045 23.5414C168.695 23.613 168.485 23.804 168.415 24.1142C168.391 24.162 168.345 24.2216 168.275 24.2932C168.111 24.3171 167.994 24.3409 167.924 24.3648C167.854 24.4125 167.714 24.4961 167.504 24.6154C167.341 24.6154 167.177 24.6393 167.014 24.687C166.85 24.7347 166.698 24.8302 166.558 24.9734C166.511 24.9734 166.476 24.9734 166.453 24.9734C166.43 24.9973 166.395 25.0092 166.348 25.0092C166.255 25.0569 166.149 25.0331 166.033 24.9376C165.916 24.866 165.857 24.7705 165.857 24.6512V24.4364C165.764 24.3887 165.647 24.3887 165.507 24.4364C165.39 24.4841 165.297 24.4364 165.227 24.2932V23.7562C165.157 23.7085 165.087 23.6727 165.017 23.6488C164.97 23.6011 164.912 23.5653 164.842 23.5414C164.748 23.3505 164.643 23.1476 164.526 22.9329C164.41 22.7181 164.293 22.5271 164.176 22.3601C164.083 22.2885 164.001 22.2646 163.931 22.2885C163.861 22.3123 163.802 22.3481 163.756 22.3959C163.709 22.4436 163.674 22.5033 163.65 22.5749C163.627 22.6226 163.592 22.6703 163.545 22.7181C163.499 22.7658 163.464 22.8255 163.44 22.8971C163.417 22.9687 163.382 23.0283 163.335 23.076C163.032 23.2192 162.728 23.3505 162.424 23.4698C162.121 23.5653 161.829 23.6488 161.549 23.7204C161.385 23.8398 161.222 23.9472 161.058 24.0426C160.895 24.1381 160.743 24.2336 160.603 24.329C160.463 24.3529 160.322 24.3887 160.182 24.4364C160.042 24.4841 159.914 24.5199 159.797 24.5438C159.657 24.4722 159.517 24.4483 159.377 24.4722C159.26 24.5199 159.108 24.5677 158.921 24.6154C158.711 24.5677 158.489 24.508 158.256 24.4364C158.022 24.3887 157.777 24.3409 157.52 24.2932C157.45 24.3171 157.38 24.329 157.31 24.329C157.24 24.329 157.181 24.3409 157.135 24.3648C157.041 24.3171 156.959 24.2694 156.889 24.2216C156.843 24.1739 156.773 24.1381 156.679 24.1142C156.562 24.0665 156.457 24.0665 156.364 24.1142C156.27 24.162 156.165 24.2097 156.049 24.2574C155.932 24.2097 155.803 24.1739 155.663 24.15C155.523 24.15 155.383 24.1381 155.243 24.1142C155.126 23.9949 155.021 23.8875 154.928 23.792C154.858 23.6966 154.811 23.5772 154.787 23.434C154.741 23.3863 154.694 23.3505 154.647 23.3266C154.601 23.2789 154.566 23.2431 154.542 23.2192C154.449 22.8851 154.344 22.5987 154.227 22.3601C153.9 21.6441 153.678 20.8565 153.561 19.9973C153.515 19.9496 153.468 19.9019 153.421 19.8541C153.375 19.7825 153.316 19.7109 153.246 19.6394C153.223 19.4246 153.199 19.2217 153.176 19.0308C153.153 18.816 153.118 18.5892 153.071 18.3506C153.118 18.2074 153.141 18.0761 153.141 17.9568C153.094 17.7181 153.048 17.5033 153.001 17.3124C153.094 17.026 153.188 16.7396 153.281 16.4532C153.398 16.1668 153.433 15.8685 153.386 15.5583C153.433 15.4628 153.491 15.3793 153.561 15.3077C153.631 15.2122 153.69 15.1287 153.737 15.0571C153.947 14.8184 154.099 14.544 154.192 14.2337C154.262 13.9712 154.379 13.7445 154.542 13.5535C154.729 13.3626 154.928 13.2075 155.138 13.0881C155.395 12.9688 155.64 12.8495 155.873 12.7302C156.13 12.587 156.376 12.4676 156.609 12.3722C156.656 12.3722 156.714 12.3841 156.784 12.408C156.878 12.408 156.948 12.396 156.994 12.3722C157.415 12.3006 157.777 12.2767 158.08 12.3006C158.221 12.3244 158.361 12.3244 158.501 12.3006C158.641 12.2767 158.769 12.2648 158.886 12.2648L159.622 12.1216C159.762 12.1454 159.902 12.1812 160.042 12.229C160.182 12.2767 160.322 12.2648 160.463 12.1932C160.509 12.1932 160.544 12.2051 160.568 12.229C160.614 12.229 160.649 12.229 160.673 12.229C160.79 12.2767 160.895 12.3364 160.988 12.408C161.081 12.4557 161.187 12.4796 161.303 12.4796C161.56 12.5273 161.724 12.4796 161.794 12.3364C161.77 11.9306 161.735 11.6681 161.689 11.5488C161.665 11.4295 161.595 11.2385 161.479 10.976C161.408 10.8328 161.362 10.6896 161.338 10.5464C161.315 10.3794 161.292 10.2242 161.268 10.081C161.245 9.98556 161.222 9.90203 161.198 9.83043C161.198 9.73497 161.152 9.63951 161.058 9.54404C160.755 9.44858 160.381 9.37698 159.937 9.32925H159.727C159.517 9.42471 159.295 9.47244 159.061 9.47244C158.828 9.47244 158.583 9.49631 158.326 9.54404C158.162 9.56791 157.987 9.61564 157.8 9.68724C157.637 9.75884 157.462 9.8185 157.275 9.86623C157.088 9.9617 156.901 9.91397 156.714 9.72304C156.644 9.50824 156.609 9.29345 156.609 9.07866C156.632 8.84 156.656 8.60134 156.679 8.36268C156.632 8.19561 156.574 8.00469 156.504 7.78989C156.434 7.55123 156.399 7.27677 156.399 6.96652L156.434 6.71592C156.411 6.66819 156.364 6.62046 156.294 6.57273C156.247 6.525 156.2 6.4892 156.154 6.46533C156.084 6.39373 156.072 6.32213 156.119 6.25054C156.119 6.17894 156.154 6.14314 156.224 6.14314C156.411 6.09541 156.586 6.05961 156.749 6.03574C156.913 6.01188 157.076 5.98801 157.24 5.96414L157.66 5.53456C157.707 5.51069 157.765 5.49876 157.835 5.49876C158.372 5.59422 158.758 5.63002 158.991 5.60615C159.248 5.58229 159.634 5.48683 160.147 5.31976C160.404 5.34363 160.649 5.37943 160.883 5.42716C161.14 5.47489 161.397 5.48682 161.654 5.46296C161.724 5.53456 161.794 5.60616 161.864 5.67775C161.957 5.72549 162.051 5.78515 162.144 5.85675C162.261 5.80902 162.378 5.77322 162.494 5.74935C162.611 5.70162 162.716 5.66582 162.81 5.64195C162.95 5.73742 163.102 5.83288 163.265 5.92835C163.382 5.95221 163.475 5.92835 163.545 5.85675C163.639 5.78515 163.732 5.74935 163.826 5.74935C164.036 5.77322 164.199 5.88061 164.316 6.07154C164.456 6.2386 164.608 6.3818 164.772 6.50113C164.912 6.59659 165.04 6.71592 165.157 6.85912C165.297 7.00232 165.437 7.13358 165.577 7.25291C165.624 7.32451 165.671 7.3961 165.717 7.4677C165.764 7.5393 165.799 7.6109 165.822 7.6825C165.939 7.77796 166.044 7.86149 166.138 7.93309C166.231 7.98082 166.313 8.05242 166.383 8.14788C166.5 8.24335 166.617 8.31494 166.733 8.36268C166.873 8.41041 166.979 8.49394 167.049 8.61327C167.095 8.7326 167.142 8.86386 167.189 9.00706C167.235 9.12639 167.317 9.23378 167.434 9.32925C167.504 9.56791 167.574 9.8185 167.644 10.081C167.714 10.3197 167.726 10.5703 167.679 10.8328C167.679 10.9521 167.667 11.0595 167.644 11.155C167.691 11.2743 167.726 11.4056 167.749 11.5488C167.773 11.692 167.808 11.8232 167.854 11.9426V12.1216C167.854 12.1932 167.843 12.2767 167.819 12.3722C167.819 12.4438 167.831 12.5034 167.854 12.5512C167.901 12.6944 167.959 12.8017 168.029 12.8733C168.029 13.0165 167.971 13.1478 167.854 13.2671C167.808 13.291 167.749 13.3149 167.679 13.3387C167.609 13.3626 167.551 13.3984 167.504 13.4461C167.224 13.6132 167.189 13.828 167.399 14.0905C167.422 14.1144 167.457 14.1621 167.504 14.2337C167.574 14.2814 167.621 14.3411 167.644 14.4127C167.667 14.5082 167.679 14.6156 167.679 14.7349C167.679 14.8304 167.691 14.9378 167.714 15.0571C167.621 15.5105 167.446 15.9401 167.189 16.3458C167.259 16.68 167.364 17.0022 167.504 17.3124C167.667 17.6227 167.808 17.9449 167.924 18.279C168.041 18.3506 168.135 18.4222 168.205 18.4938C168.275 18.5654 168.356 18.625 168.45 18.6728C168.473 18.7444 168.485 18.7921 168.485 18.816C168.508 18.8398 168.52 18.8756 168.52 18.9234C168.52 19.162 168.543 19.4007 168.59 19.6394C168.66 19.878 168.742 20.1047 168.835 20.3195C168.929 20.5343 169.022 20.7372 169.115 20.9281C169.209 21.119 169.326 21.31 169.466 21.5009C169.583 21.5964 169.676 21.7276 169.746 21.8947C169.816 22.0617 169.874 22.2049 169.921 22.3243ZM162.249 17.4914C162.109 17.1334 161.934 16.8948 161.724 16.7754C161.467 16.6561 161.303 16.501 161.233 16.31C161.21 16.2146 161.163 16.1549 161.093 16.1311C161.023 16.1072 160.953 16.0833 160.883 16.0595C160.79 16.0595 160.673 16.0714 160.533 16.0953C160.416 16.0953 160.299 16.1072 160.182 16.1311C160.042 16.1311 159.902 16.1072 159.762 16.0595C159.645 16.0117 159.528 15.9759 159.412 15.9521C159.201 15.9521 159.003 16.0117 158.816 16.1311C158.723 16.2027 158.641 16.2742 158.571 16.3458C158.501 16.3936 158.431 16.4652 158.361 16.5606L157.905 17.4198C157.952 17.563 158.01 17.6943 158.08 17.8136C158.151 17.9091 158.151 18.0523 158.08 18.2432C158.127 18.458 158.174 18.6847 158.221 18.9234C158.291 19.1382 158.384 19.353 158.501 19.5678C158.548 19.6155 158.583 19.6394 158.606 19.6394C158.863 19.6871 159.12 19.7109 159.377 19.7109C159.634 19.7109 159.879 19.699 160.112 19.6751C160.206 19.6751 160.276 19.6632 160.322 19.6394C160.579 19.4962 160.895 19.3649 161.268 19.2456C161.408 19.2217 161.537 19.1143 161.654 18.9234C161.747 18.7086 161.841 18.4818 161.934 18.2432C162.027 17.9807 162.132 17.7301 162.249 17.4914ZM154.822 23.3624C154.822 23.3624 154.811 23.3624 154.787 23.3624C154.787 23.3624 154.787 23.3863 154.787 23.434C154.834 23.3863 154.846 23.3624 154.822 23.3624Z" fill="black"/>
<path d="M21.6014 26C21.3266 25.3511 21.0312 24.6725 20.7606 23.9983C20.3053 22.8999 19.8252 21.7972 19.3948 20.7032C19.1121 19.9484 18.8294 19.1937 18.6254 18.4266C18.3845 17.5747 18.2514 16.6893 18.0644 15.8207C17.9996 15.4436 17.91 15.0622 17.8289 14.6301C17.8077 14.757 17.7702 14.8288 17.7617 14.8796C17.5921 15.8949 17.4267 16.8849 17.2322 17.8959C17.1601 18.3274 16.9845 18.767 16.7882 19.1768C16.7004 19.3966 16.5175 19.5736 16.3141 19.721C15.8653 20.1128 15.4003 20.4496 14.9558 20.8161C13.9839 21.5868 13.0077 22.3829 12.0358 23.1536C11.475 23.6042 10.9555 24.1143 10.3741 24.5353C10.1955 24.687 9.88062 24.7365 9.65719 24.6974C8.61027 24.5407 7.58456 24.257 6.57033 24.2105C5.43197 24.1423 4.35236 23.8753 3.22672 23.731C2.90399 23.6746 2.61032 23.5972 2.21736 23.5024C2.07026 23.0065 1.89834 22.5062 1.72642 22.0059C1.32569 20.7342 0.929205 19.4371 0.528475 18.1654C0.377141 17.6949 0.221565 17.2497 0.0659896 16.8045C-0.122273 16.2492 0.103019 15.8183 0.605014 15.5663C1.65865 15.0711 2.69171 14.5462 3.74535 14.051C4.3842 13.7446 5.04787 13.4426 5.68671 13.1362C6.01855 12.9851 6.33404 12.779 6.65739 12.6787C6.95168 12.5995 7.25807 12.6008 7.56446 12.602C8.05311 12.5829 8.53328 12.6145 8.99287 12.6164C9.34891 12.6264 9.72553 12.666 10.0816 12.676C10.5163 12.6735 10.9511 12.6711 11.4107 12.673C11.6178 12.6569 11.8497 12.6452 12.0525 12.6545C12.3837 12.6601 12.7107 12.6911 13.0171 12.6924C13.5058 12.6732 13.9738 12.6243 14.4376 12.6009C14.7192 12.5978 14.9802 12.565 15.2618 12.5619C15.2618 12.5619 15.2702 12.5112 15.2745 12.4858C14.6454 12.4281 14.0162 12.3705 13.4119 12.3172C13.3126 12.2999 13.2133 12.2825 13.114 12.2652C11.6862 12.0942 10.2585 11.9231 8.83067 11.7521C8.48311 11.6914 8.12707 11.6815 7.78799 11.57C7.52339 11.4715 7.30482 11.2505 7.14015 11.0127C6.69514 10.4647 6.30403 9.90007 5.85903 9.3521C5.33169 8.68526 4.80011 8.04379 4.27277 7.37694C3.91435 6.92247 3.52686 6.48905 3.14362 6.03024L3.23692 5.4718C3.91331 5.09358 4.54006 4.70669 5.19163 4.32414C5.98004 3.88712 6.76422 3.47548 7.52782 3.03412C8.09219 2.71471 8.6069 2.38662 9.16703 2.09259C9.33295 2.01708 9.51521 1.99666 9.70171 1.95087C9.85915 1.92612 10.0081 1.95214 10.2358 1.96578C10.8346 2.35774 11.4498 2.80481 12.094 3.23083C13.0851 3.87419 14.0721 4.54294 15.0632 5.18631C15.501 5.47177 15.943 5.73184 16.3184 6.08478C16.5412 6.28044 16.7137 6.62408 16.7912 6.92498C16.9867 7.74286 17.1035 8.57311 17.2451 9.4077C17.2978 9.70427 17.2675 10.0386 17.3159 10.3605C17.3328 10.259 17.3455 10.1829 17.3625 10.0813C17.5237 9.11674 17.6891 8.12678 17.8502 7.1622C17.9223 6.73068 18.0235 6.27811 18.2155 5.89366C18.3366 5.62745 18.623 5.44236 18.8392 5.21888C19.4169 4.66667 19.9946 4.11447 20.5766 3.53689C20.9714 3.16174 21.362 2.81197 21.7568 2.43682C22.3346 1.88462 22.908 1.35781 23.49 0.780222C23.86 0.400736 24.3117 0.296768 24.7882 0.197137C25.1074 0.122254 25.4428 0.102475 25.7825 0.0573129C25.9648 0.0368998 26.1761 -0.0045604 26.3541 0.000410077C26.6853 0.00601473 27.0166 0.0116194 27.3726 0.0215603C27.5506 0.0265308 27.7619 -0.0149294 27.9357 0.0154247C28.2088 0.0631239 28.4692 0.186974 28.7295 0.310824C29.7007 0.767832 30.6719 1.22484 31.668 1.68618C32.6143 2.13886 33.5855 2.59586 34.5319 3.04853C34.8873 3.21511 35.0478 3.47826 34.9593 3.85468C34.7945 4.688 34.6049 5.51698 34.4153 6.34597C34.3142 6.79854 34.1924 7.22139 34.0664 7.66962C33.9235 8.21939 33.8054 8.77349 33.6624 9.32326C33.5612 9.77583 33.4601 10.2284 33.3093 10.6723C33.2838 10.8246 33.1215 11.0314 32.9598 11.0815C32.4791 11.2065 31.9777 11.3018 31.4805 11.3717C30.3537 11.5406 29.1977 11.7306 28.0751 11.8741C27.056 12.0096 26.0163 12.1154 24.9809 12.1958C24.31 12.2353 23.6475 12.2241 22.9809 12.2383C22.749 12.25 22.5419 12.2661 22.4135 12.2698C22.7278 12.3769 23.1661 12.5058 23.5754 12.6556C23.84 12.7541 24.0919 12.9287 24.3232 13.0736C25.0129 13.5337 25.6734 14.0148 26.3631 14.4749C26.7512 14.7517 26.9939 15.1337 27.0956 15.5956C27.319 16.7057 27.5423 17.8158 27.7408 18.9216C27.9514 20.1078 28.1911 21.273 28.3726 22.4803C28.4132 22.6964 28.3253 22.9162 28.3162 23.1236C27.0712 23.8466 21.9532 26.0353 21.5518 25.9913L21.6014 26Z" fill="#B8D53D"/>
</svg>
